<svg width="223" height="35" viewBox="0 0 223 35" version="1.1" xmlns="http://www.w3.org/2000/svg" xmlns:xlink="http://www.w3.org/1999/xlink">
<g id="Canvas" fill="none">
<g id="Group 13.2">
<g id="rinaldydwii.">
<path d="M 13.14 12.8416C 12.4543 12.7235 11.8928 12.6645 11.4554 12.6645C 9.67027 12.6172 8.25756 13.2844 7.21723 14.666L 5.00064 27.2065L 0 27.2065L 3.33376 8.0415L 8.03294 8.02379L 7.57189 10.3618C 8.77772 8.55516 10.2673 7.65182 12.0405 7.65182C 12.5371 7.65182 13.1163 7.73448 13.7784 7.8998L 13.14 12.8416Z" fill="black"/>
<path d="M 18.3357 27.2065L 13.2996 27.2065L 16.6333 8.0415L 21.6694 8.0415L 18.3357 27.2065ZM 17.2185 3.17055C 17.1949 2.37939 17.4549 1.72402 17.9988 1.20445C 18.5426 0.684885 19.1987 0.425101 19.9671 0.425101C 20.7237 0.401484 21.3798 0.631748 21.9354 1.11589C 22.4911 1.60003 22.7807 2.22588 22.8043 2.99342C 22.828 3.72554 22.5797 4.36319 22.0596 4.90638C 21.5512 5.44956 20.8833 5.73296 20.0558 5.75658C 19.311 5.7802 18.6549 5.55584 18.0874 5.0835C 17.5318 4.61117 17.2422 3.97352 17.2185 3.17055Z" fill="black"/>
<path d="M 30.5003 8.02379L 30.0748 10.291C 31.6116 8.50793 33.4735 7.64001 35.6606 7.68725C 37.4693 7.72267 38.8052 8.38394 39.6682 9.67105C 40.5312 10.9582 40.8445 12.7412 40.608 15.0202L 38.5865 27.2065L 33.5858 27.2065L 35.6428 14.9671C 35.702 14.5066 35.7138 14.0874 35.6783 13.7095C 35.5246 12.5051 34.768 11.8851 33.4085 11.8497C 32.0963 11.8025 30.92 12.4106 29.8797 13.6741L 27.4858 27.2065L 22.4851 27.2065L 25.8189 8.0415L 30.5003 8.02379Z" fill="black"/>
<path d="M 53.6239 27.2065C 53.4702 26.7223 53.4052 26.1437 53.4288 25.4706C 51.9865 26.9113 50.3551 27.608 48.5346 27.5607C 46.8559 27.5371 45.4609 26.9939 44.3496 25.9312C 43.2502 24.8566 42.736 23.5341 42.8069 21.9636C 42.8896 19.8735 43.7645 18.2734 45.4313 17.1635C 47.11 16.0417 49.3562 15.4808 52.1698 15.4808L 54.5105 15.5162L 54.7588 14.3649C 54.8297 13.9752 54.8474 13.6032 54.812 13.249C 54.7529 12.694 54.5401 12.263 54.1736 11.956C 53.8189 11.6371 53.3461 11.4718 52.755 11.46C 51.9747 11.4364 51.3127 11.6312 50.7689 12.0445C 50.2251 12.446 49.8763 13.0305 49.7227 13.7981L 44.7043 13.8158C 44.787 11.9855 45.6264 10.5035 47.2223 9.36994C 48.8301 8.22453 50.8103 7.66363 53.1628 7.68725C 55.338 7.73448 57.0404 8.38394 58.2699 9.63563C 59.4993 10.8755 60.0136 12.4755 59.8126 14.4357L 58.3408 23.6108L 58.2521 24.7444C 58.2285 25.5828 58.329 26.2913 58.5536 26.8699L 58.5358 27.2065L 53.6239 27.2065ZM 49.7759 23.6817C 51.2181 23.7289 52.4771 23.1031 53.5529 21.8041L 54.1736 18.4919L 52.4358 18.4742C 50.5916 18.5214 49.2616 19.0823 48.4459 20.1569C 48.1504 20.5466 47.9671 21.0248 47.8962 21.5916C 47.8016 22.2293 47.9317 22.737 48.2863 23.1149C 48.6528 23.4809 49.1493 23.6699 49.7759 23.6817Z" fill="black"/>
<path d="M 66.888 27.2065L 61.8519 27.2065L 66.5865 0L 71.6049 0L 66.888 27.2065Z" fill="black"/>
<path d="M 80.6663 7.66953C 82.4514 7.71677 83.8937 8.43117 84.9931 9.81275L 86.8728 0L 91.8912 0L 87.1742 27.2065L 82.7056 27.2065L 82.9893 25.1518C 81.5589 26.8168 79.892 27.6257 77.9887 27.5784C 76.7947 27.5666 75.7484 27.2537 74.85 26.6397C 73.9515 26.0256 73.254 25.1459 72.7575 24.0005C 72.2728 22.8433 72.0068 21.5562 71.9595 20.1392C 71.9241 19.3952 71.9418 18.6749 72.0127 17.9782L 72.1191 17.1812C 72.4029 15.221 72.9467 13.497 73.7506 12.0091C 74.5663 10.5213 75.5593 9.41717 76.7297 8.69686C 77.9118 7.97655 79.2241 7.63411 80.6663 7.66953ZM 77.0311 17.9782C 76.9365 18.8757 76.907 19.6314 76.9424 20.2454C 77.0607 22.3237 77.9 23.3806 79.4605 23.416C 80.8673 23.475 82.0909 22.8138 83.1312 21.4322L 84.4966 13.8158C 84.0356 12.5523 83.1134 11.891 81.7303 11.832C 80.5126 11.7966 79.496 12.2689 78.6803 13.249C 77.8764 14.2173 77.3267 15.7937 77.0311 17.9782Z" fill="black"/>
<path d="M 99.3212 19.9089L 104.801 8.0415L 110.369 8.0415L 99.1439 30.0936C 98.34 31.7822 97.3942 33.0221 96.3066 33.8133C 95.2308 34.6044 93.9836 35 92.565 35C 92.0094 35 91.2055 34.876 90.1534 34.628L 90.5257 30.7313L 91.2173 30.7667C 92.8487 30.8139 94.0427 30.2176 94.7993 28.9777L 95.8988 26.9408L 92.7601 8.0415L 97.938 8.0415L 99.3212 19.9089Z" fill="black"/>
<path d="M 118.331 7.66953C 120.116 7.71677 121.558 8.43117 122.658 9.81275L 124.537 0L 129.556 0L 124.839 27.2065L 120.37 27.2065L 120.654 25.1518C 119.223 26.8168 117.556 27.6257 115.653 27.5784C 114.459 27.5666 113.413 27.2537 112.514 26.6397C 111.616 26.0256 110.918 25.1459 110.422 24.0005C 109.937 22.8433 109.671 21.5562 109.624 20.1392C 109.588 19.3952 109.606 18.6749 109.677 17.9782L 109.784 17.1812C 110.067 15.221 110.611 13.497 111.415 12.0091C 112.231 10.5213 113.224 9.41717 114.394 8.69686C 115.576 7.97655 116.888 7.63411 118.331 7.66953ZM 114.695 17.9782C 114.601 18.8757 114.571 19.6314 114.607 20.2454C 114.725 22.3237 115.564 23.3806 117.125 23.416C 118.532 23.475 119.755 22.8138 120.796 21.4322L 122.161 13.8158C 121.7 12.5523 120.778 11.891 119.395 11.832C 118.177 11.7966 117.16 12.2689 116.345 13.249C 115.541 14.2173 114.991 15.7937 114.695 17.9782Z" fill="black"/>
<path d="M 146.171 20.2277L 150.728 8.0415L 155.711 8.0415L 147.643 27.2065L 143.458 27.2065L 142.039 15.2151L 136.436 27.2065L 132.251 27.2065L 130.832 8.0415L 135.514 8.0415L 135.815 20.1037L 141.295 8.0415L 144.912 8.0415L 146.171 20.2277Z" fill="black"/>
<path d="M 160.198 27.2065L 155.162 27.2065L 158.495 8.0415L 163.532 8.0415L 160.198 27.2065ZM 159.081 3.17055C 159.057 2.37939 159.317 1.72402 159.861 1.20445C 160.405 0.684885 161.061 0.425101 161.829 0.425101C 162.586 0.401484 163.242 0.631748 163.798 1.11589C 164.353 1.60003 164.643 2.22588 164.666 2.99342C 164.69 3.72554 164.442 4.36319 163.922 4.90638C 163.413 5.44956 162.745 5.73296 161.918 5.75658C 161.173 5.7802 160.517 5.55584 159.949 5.0835C 159.394 4.61117 159.104 3.97352 159.081 3.17055Z" fill="black"/>
<path d="M 169.738 27.2065L 164.702 27.2065L 168.036 8.0415L 173.072 8.0415L 169.738 27.2065ZM 168.621 3.17055C 168.597 2.37939 168.857 1.72402 169.401 1.20445C 169.945 0.684885 170.601 0.425101 171.369 0.425101C 172.126 0.401484 172.782 0.631748 173.338 1.11589C 173.893 1.60003 174.183 2.22588 174.207 2.99342C 174.23 3.72554 173.982 4.36319 173.462 4.90638C 172.954 5.44956 172.286 5.73296 171.458 5.75658C 170.713 5.7802 170.057 5.55584 169.49 5.0835C 168.934 4.61117 168.644 3.97352 168.621 3.17055Z" fill="black"/>
<path d="M 177.487 21.9281C 178.279 21.9045 178.953 22.1525 179.509 22.6721C 180.076 23.1798 180.36 23.8234 180.36 24.6027C 180.384 25.3821 180.123 26.0493 179.58 26.6043C 179.036 27.1474 178.368 27.419 177.576 27.419C 176.784 27.4426 176.116 27.2065 175.572 26.7105C 175.028 26.2146 174.745 25.571 174.721 24.7799C 174.697 23.9887 174.951 23.3215 175.483 22.7783C 176.015 22.2352 176.683 21.9518 177.487 21.9281Z" fill="black"/>
</g>
<g id="com" transform="translate(184.598 16.0503)">
<path d="M 4.35855 9.01036C 4.88547 9.02386 5.32457 8.88216 5.67584 8.58526C 6.02712 8.28162 6.2568 7.88013 6.36489 7.38081L 9.05014 7.37068C 9.00285 8.13991 8.75966 8.83155 8.32056 9.44558C 7.88822 10.0596 7.30726 10.5387 6.57768 10.8828C 5.85486 11.227 5.09151 11.3889 4.28762 11.3687C 2.95682 11.3484 1.90299 10.8896 1.12613 9.99214C 0.349262 9.09471 -0.0256589 7.90037 0.00136242 6.40915L 0.0317614 5.85247L 0.0418944 5.74113C 0.224289 3.95975 0.825514 2.5495 1.84557 1.51036C 2.86563 0.464476 4.1255 -0.0382226 5.62518 0.00226318C 6.86141 0.0292537 7.84093 0.434112 8.56375 1.21684C 9.29333 1.99282 9.65136 3.01846 9.63785 4.29376L 6.97287 4.29376C 6.97287 3.70672 6.84452 3.2445 6.58782 2.90712C 6.33111 2.56974 5.94606 2.38755 5.43265 2.36056C 4.06807 2.32008 3.24055 3.31535 2.95007 5.34639C 2.84874 6.08189 2.81158 6.70267 2.8386 7.20874C 2.90616 8.38958 3.41281 8.99012 4.35855 9.01036Z" fill="black"/>
<path d="M 16.427 0.00226318C 17.393 0.0157585 18.2239 0.265421 18.9197 0.751251C 19.6222 1.23033 20.1356 1.89498 20.4599 2.74518C 20.7909 3.58863 20.9091 4.52655 20.8146 5.55894C 20.6592 7.29983 20.0512 8.71009 18.9906 9.78971C 17.9368 10.8626 16.633 11.3855 15.0793 11.3585C 14.1268 11.345 13.3026 11.1021 12.6068 10.6298C 11.911 10.1507 11.3976 9.48944 11.0666 8.64599C 10.7356 7.80253 10.6174 6.87136 10.7119 5.85247C 10.8876 4.0441 11.5023 2.60685 12.5562 1.54072C 13.61 0.474598 14.9003 -0.0382226 16.427 0.00226318ZM 13.5391 6.89498C 13.5526 7.54275 13.7046 8.05557 13.995 8.43344C 14.2855 8.80456 14.6942 8.99686 15.2211 9.01036C 16.0993 9.03735 16.7884 8.63587 17.2883 7.80591C 17.7882 6.9692 18.0212 5.87271 17.9874 4.51643C 17.9604 3.86866 17.8017 3.35247 17.5112 2.96785C 17.2275 2.57649 16.8188 2.37406 16.2851 2.36056C 15.4339 2.33357 14.7516 2.73506 14.2382 3.56502C 13.7316 4.38823 13.4985 5.49821 13.5391 6.89498Z" fill="black"/>
<path d="M 26.2053 0.194571L 25.9723 1.43951C 26.8572 0.454355 27.9279 -0.0247274 29.1844 0.00226318C 29.8599 0.0157585 30.4206 0.170954 30.8665 0.46785C 31.3123 0.764746 31.613 1.16623 31.7683 1.6723C 32.7343 0.531953 33.8692 -0.0247274 35.173 0.00226318C 36.1796 0.0225061 36.9362 0.366636 37.4428 1.03465C 37.9562 1.70267 38.1724 2.66758 38.0913 3.92939L 38.0711 4.18242L 36.9058 11.1561L 34.0381 11.1561L 35.2034 4.16218C 35.2304 3.91252 35.2406 3.67973 35.2338 3.4638C 35.1865 2.7553 34.7812 2.39093 34.0179 2.37068C 33.2342 2.37068 32.5621 2.78904 32.0014 3.62574L 31.971 3.85854L 30.6942 11.1561L 27.8367 11.1561L 29.002 4.18242C 29.029 3.93276 29.0392 3.69997 29.0324 3.48404C 28.9851 2.76879 28.5832 2.40105 27.8266 2.38081C 27.1038 2.36056 26.4519 2.70132 25.8709 3.40307L 24.503 11.1561L 21.6455 11.1561L 23.5403 0.204692L 26.2053 0.194571Z" fill="black"/>
</g>
</g>
</g>
</svg>
